<?xml version="1.0" encoding="UTF-8" standalone="no"?>
<!-- Uploaded to: SVG Repo, www.svgrepo.com, Generator: SVG Repo Mixer Tools -->

<svg
   width="800px"
   height="800px"
   viewBox="0 0 512 512"
   version="1.1"
   id="svg40"
   sodipodi:docname="controller.svg"
   inkscape:version="1.2.2 (732a01da63, 2022-12-09)"
   xmlns:inkscape="http://www.inkscape.org/namespaces/inkscape"
   xmlns:sodipodi="http://sodipodi.sourceforge.net/DTD/sodipodi-0.dtd"
   xmlns="http://www.w3.org/2000/svg"
   xmlns:svg="http://www.w3.org/2000/svg"
   xmlns:rdf="http://www.w3.org/1999/02/22-rdf-syntax-ns#"
   xmlns:cc="http://creativecommons.org/ns#"
   xmlns:dc="http://purl.org/dc/elements/1.1/">
  <defs
     id="defs44" />
  <sodipodi:namedview
     id="namedview42"
     pagecolor="#ffffff"
     bordercolor="#666666"
     borderopacity="1.0"
     inkscape:showpageshadow="2"
     inkscape:pageopacity="0.0"
     inkscape:pagecheckerboard="0"
     inkscape:deskcolor="#d1d1d1"
     showgrid="false"
     inkscape:zoom="0.90774833"
     inkscape:cx="422.47393"
     inkscape:cy="439.54914"
     inkscape:window-width="2560"
     inkscape:window-height="1377"
     inkscape:window-x="2552"
     inkscape:window-y="-8"
     inkscape:window-maximized="1"
     inkscape:current-layer="svg40" />
  <title
     id="title24">ionicons-v5-g</title>
  <path
     d="M467.51,248.83c-18.4-83.18-45.69-136.24-89.43-149.17A91.5,91.5,0,0,0,352,96c-26.89,0-48.11,16-96,16s-69.15-16-96-16a99.09,99.09,0,0,0-27.2,3.66C89,112.59,61.94,165.7,43.33,248.83c-19,84.91-15.56,152,21.58,164.88,26,9,49.25-9.61,71.27-37,25-31.2,55.79-40.8,119.82-40.8s93.62,9.6,118.66,40.8c22,27.41,46.11,45.79,71.42,37.16C487.1,399.86,486.52,334.74,467.51,248.83Z"
     style="fill:none;stroke:#000000;stroke-miterlimit:10;stroke-width:19.2;stroke-dasharray:none"
     id="path26" />
  <circle
     cx="338.92502"
     cy="181.1256"
     r="14.079844"
     id="circle28"
     style="stroke-width:0.703992" />
  <path
     d="m 369.90068,226.18111 a 14.079844,14.079844 0 1 1 14.07984,-14.04464 14.079844,14.079844 0 0 1 -14.07984,14.04464 z"
     id="path30"
     style="stroke-width:0.703992" />
  <circle
     cx="369.90067"
     cy="150.14995"
     r="14.079844"
     id="circle32"
     style="stroke-width:0.703992" />
  <circle
     cx="400.87634"
     cy="181.1256"
     r="14.079844"
     id="circle34"
     style="stroke-width:0.703992" />
  <line
     x1="142.05258"
     y1="146.83543"
     x2="142.05258"
     y2="223.3924"
     style="fill:none;stroke:#000000;stroke-width:25.519px;stroke-linecap:round;stroke-linejoin:round"
     id="line36" />
  <line
     x1="180.33105"
     y1="185.11392"
     x2="103.77409"
     y2="185.11392"
     style="fill:none;stroke:#000000;stroke-width:25.519px;stroke-linecap:round;stroke-linejoin:round"
     id="line38" />
  <metadata
     id="metadata150">
    <rdf:RDF>
      <cc:Work
         rdf:about="">
        <dc:title>ionicons-v5-g</dc:title>
      </cc:Work>
    </rdf:RDF>
  </metadata>
</svg>
